<svg width="24" height="24" viewBox="0 0 24 24" fill="none" xmlns="http://www.w3.org/2000/svg">
<path d="M5.8125 15.3406C5.8125 14.3978 6.56802 13.6335 7.5 13.6335C8.43198 13.6335 9.1875 14.3978 9.1875 15.3406V19.8929C9.1875 20.8357 8.43198 21.6 7.5 21.6C6.56802 21.6 5.8125 20.8357 5.8125 19.8929V15.3406Z" fill="#F3971A"/>
<path d="M14.8125 15.3406C14.8125 14.3978 15.568 13.6335 16.5 13.6335C17.432 13.6335 18.1875 14.3978 18.1875 15.3406V19.8929C18.1875 20.8357 17.432 21.6 16.5 21.6C15.568 21.6 14.8125 20.8357 14.8125 19.8929V15.3406Z" fill="#F3971A"/>
<path fill-rule="evenodd" clip-rule="evenodd" d="M1.80078 12.3185C1.80078 6.61973 6.36748 2 12.0008 2C17.6341 2 22.2008 6.61973 22.2008 12.3185V18.5778C22.2008 19.2482 21.6635 19.7917 21.0008 19.7917C20.338 19.7917 19.8008 19.2482 19.8008 18.5778V12.3185C19.8008 7.9606 16.3086 4.42787 12.0008 4.42787C7.69296 4.42787 4.20078 7.9606 4.20078 12.3185V18.5778C4.20078 19.2482 3.66352 19.7917 3.00078 19.7917C2.33804 19.7917 1.80078 19.2482 1.80078 18.5778V12.3185Z" fill="#FFCE8B"/>
</svg>
